<svg xmlns="http://www.w3.org/2000/svg" width="22" height="16" viewBox="0 0 22 16" fill="none">
  <g clip-path="url(#clip0_1084_2243)">
    <path d="M21.6208 15.4876H0.379571C0.170099 15.4876 0.000244141 15.3111 0.000244141 15.0935V0.906373C0.000244141 0.68874 0.170099 0.512268 0.379571 0.512268H21.6209C21.8303 0.512268 22.0002 0.68874 22.0002 0.906373V15.0935C22.0002 15.3111 21.8303 15.4876 21.6208 15.4876Z" fill="#41479B"/>
    <path d="M22.0002 0.906373C22.0002 0.68874 21.8303 0.512268 21.6208 0.512268H19.9238L12.8967 5.2956V0.512268H9.10361V5.2956L2.07657 0.512268H0.379571C0.170099 0.512268 0.000244141 0.68874 0.000244141 0.906373V1.92561L6.02912 6.02948H0.000244141V9.97036H6.02912L0.000244141 14.0743V15.0935C0.000244141 15.3111 0.170099 15.4876 0.379571 15.4876H2.07662L9.1037 10.7043V15.4876H12.8968V10.7043L19.9239 15.4876H21.6209C21.8304 15.4876 22.0002 15.3111 22.0002 15.0935V14.0743L15.9714 9.9704H22.0002V6.02952H15.9713L22.0002 1.92561V0.906373Z" fill="#F5F5F5"/>
    <path d="M22.0002 6.81769H12.1381V0.512268H9.86226V6.81769H0.000244141V9.18219H9.86226V15.4876H12.1381V9.18219H22.0002V6.81769Z" fill="#FF4B55"/>
    <path d="M7.68954 9.97041L0.0111389 15.1488C0.0379943 15.3391 0.189029 15.4877 0.37968 15.4877H0.902135L9.08292 9.97046H7.68954V9.97041Z" fill="#FF4B55"/>
    <path d="M14.8844 9.97041H13.491L21.6599 15.4795C21.8502 15.4584 22.0005 15.2969 22.0005 15.0935V14.7695L14.8844 9.97041Z" fill="#FF4B55"/>
    <path d="M0.000488281 1.34145L6.9519 6.02955H8.34529L0.221476 0.550735C0.0917106 0.613369 0.000488281 0.747967 0.000488281 0.906403V1.34145Z" fill="#FF4B55"/>
    <path d="M14.2905 6.02957L21.9873 0.838653C21.9554 0.654636 21.8076 0.51236 21.6212 0.51236H21.0778L12.8971 6.02957H14.2905Z" fill="#FF4B55"/>
  </g>
  <rect x="0.25" y="0.25" width="21.5" height="15.5" rx="1.75" stroke="white" stroke-width="0.5"/>
  <defs>
    <clipPath id="clip0_1084_2243">
      <rect width="22" height="16" rx="2" fill="white"/>
    </clipPath>
  </defs>
</svg>