<svg width="240" height="240" viewBox="0 0 240 240" fill="none" xmlns="http://www.w3.org/2000/svg">
<g clip-path="url(#clip0_2012_17849)">
<path d="M233.14 61.7865C220.489 28.5811 191.952 13.2497 157.957 21.8581C130.152 28.8997 116.93 52.327 102.16 60.7626C80.7278 73.0038 48.479 68.3329 20.5081 93.1487C2.77141 108.885 4.82211 144.946 21.5162 170.83C34.7022 191.275 68.2756 211.478 98.9324 192.754C140.739 167.22 125.711 130.18 144.507 117.463C165.253 103.426 189.008 121.454 219.975 106.221C232.312 100.153 240.265 80.4877 233.14 61.7865Z" fill="#FFD81C"/>
<path opacity="0.7" d="M233.14 61.7865C220.489 28.5811 191.952 13.2497 157.957 21.8581C130.152 28.8997 116.93 52.327 102.16 60.7626C80.7278 73.0038 48.479 68.3329 20.5081 93.1487C2.77141 108.885 4.82211 144.946 21.5162 170.83C34.7022 191.275 68.2756 211.478 98.9324 192.754C140.739 167.22 125.711 130.18 144.507 117.463C165.253 103.426 189.008 121.454 219.975 106.221C232.312 100.153 240.265 80.4877 233.14 61.7865Z" fill="white"/>
<path d="M65.2487 220.287C88.6185 220.287 107.563 218.905 107.563 217.2C107.563 215.495 88.6185 214.113 65.2487 214.113C41.879 214.113 22.9341 215.495 22.9341 217.2C22.9341 218.905 41.879 220.287 65.2487 220.287Z" fill="#FFD81C"/>
<path d="M0 211.013H240" stroke="#263238" stroke-width="0.5" stroke-miterlimit="10" stroke-linecap="round" stroke-linejoin="round"/>
<path d="M218.648 156.149H210.751V155.449C210.751 154.075 211.907 152.982 213.282 153.056L216.375 153.223C217.649 153.291 218.647 154.342 218.647 155.615V156.149H218.648Z" fill="#FFD81C"/>
<mask id="mask0_2012_17849" style="mask-type:luminance" maskUnits="userSpaceOnUse" x="210" y="153" width="9" height="4">
<path d="M218.648 156.149H210.751V155.449C210.751 154.075 211.907 152.982 213.282 153.056L216.375 153.223C217.649 153.291 218.647 154.342 218.647 155.615V156.149H218.648Z" fill="white"/>
</mask>
<g mask="url(#mask0_2012_17849)">
<path opacity="0.8" d="M218.648 156.149H210.751V155.449C210.751 154.075 211.907 152.982 213.282 153.056L216.375 153.223C217.649 153.291 218.647 154.342 218.647 155.615V156.149H218.648Z" fill="white"/>
</g>
<path d="M218.648 156.149H210.751V155.449C210.751 154.075 211.907 152.982 213.282 153.056L216.375 153.223C217.649 153.291 218.647 154.342 218.647 155.615V156.149H218.648Z" stroke="#263238" stroke-width="0.5" stroke-miterlimit="10" stroke-linecap="round" stroke-linejoin="round"/>
<path d="M197.332 139.868C197.302 139.248 196.789 138.76 196.166 138.76H188.187C187.564 138.76 187.052 139.248 187.022 139.868L188.916 156.455H200.826L197.332 139.868Z" fill="#FFD81C" stroke="#263238" stroke-width="0.5" stroke-miterlimit="10" stroke-linecap="round" stroke-linejoin="round"/>
<path d="M219.002 114.367H216.029L212.688 145.693H215.661C216.153 145.693 216.595 145.295 216.647 144.803L219.799 115.256C219.851 114.765 219.495 114.367 219.002 114.367Z" fill="#FFD81C" stroke="#263238" stroke-width="0.5" stroke-miterlimit="10" stroke-linecap="round" stroke-linejoin="round"/>
<path d="M214.403 145.693H169.845C169.352 145.693 168.995 145.295 169.048 144.804L172.199 115.257C172.252 114.765 172.694 114.367 173.186 114.367H217.745C218.238 114.367 218.594 114.766 218.542 115.257L215.39 144.804C215.338 145.295 214.896 145.693 214.403 145.693Z" fill="#FFD81C"/>
<mask id="mask1_2012_17849" style="mask-type:luminance" maskUnits="userSpaceOnUse" x="169" y="114" width="50" height="32">
<path d="M214.403 145.693H169.845C169.352 145.693 168.995 145.295 169.048 144.804L172.199 115.257C172.252 114.765 172.694 114.367 173.186 114.367H217.745C218.238 114.367 218.594 114.766 218.542 115.257L215.39 144.804C215.338 145.295 214.896 145.693 214.403 145.693Z" fill="white"/>
</mask>
<g mask="url(#mask1_2012_17849)">
<path opacity="0.4" d="M214.403 145.693H169.845C169.352 145.693 168.995 145.295 169.048 144.804L172.199 115.257C172.252 114.765 172.694 114.367 173.186 114.367H217.745C218.238 114.367 218.594 114.766 218.542 115.257L215.39 144.804C215.338 145.295 214.896 145.693 214.403 145.693Z" fill="white"/>
</g>
<path d="M214.403 145.693H169.845C169.352 145.693 168.995 145.295 169.048 144.804L172.199 115.257C172.252 114.765 172.694 114.367 173.186 114.367H217.745C218.238 114.367 218.594 114.766 218.542 115.257L215.39 144.804C215.338 145.295 214.896 145.693 214.403 145.693Z" stroke="#263238" stroke-width="0.5" stroke-miterlimit="10" stroke-linecap="round" stroke-linejoin="round"/>
<path d="M201.271 155.167H186.624C186.267 155.167 185.978 155.455 185.978 155.811C185.978 156.166 186.267 156.455 186.624 156.455H201.271C201.628 156.455 201.917 156.167 201.917 155.811C201.917 155.455 201.628 155.167 201.271 155.167Z" fill="#FFD81C" stroke="#263238" stroke-width="0.5" stroke-miterlimit="10" stroke-linecap="round" stroke-linejoin="round"/>
<path d="M213.571 142.8H171.552C171.122 142.8 170.811 142.452 170.856 142.023L173.606 116.245C173.652 115.816 174.038 115.468 174.467 115.468H216.486C216.916 115.468 217.227 115.816 217.182 116.245L214.432 142.023C214.387 142.452 214.001 142.8 213.571 142.8Z" fill="#FFD81C"/>
<mask id="mask2_2012_17849" style="mask-type:luminance" maskUnits="userSpaceOnUse" x="170" y="115" width="48" height="28">
<path d="M213.571 142.8H171.552C171.122 142.8 170.811 142.452 170.856 142.023L173.606 116.245C173.652 115.816 174.038 115.468 174.467 115.468H216.486C216.916 115.468 217.227 115.816 217.182 116.245L214.432 142.023C214.387 142.452 214.001 142.8 213.571 142.8Z" fill="white"/>
</mask>
<g mask="url(#mask2_2012_17849)">
<path opacity="0.8" d="M213.571 142.8H171.552C171.122 142.8 170.811 142.452 170.856 142.023L173.606 116.245C173.652 115.816 174.038 115.468 174.467 115.468H216.486C216.916 115.468 217.227 115.816 217.182 116.245L214.432 142.023C214.387 142.452 214.001 142.8 213.571 142.8Z" fill="white"/>
</g>
<path d="M213.571 142.8H171.552C171.122 142.8 170.811 142.452 170.856 142.023L173.606 116.245C173.652 115.816 174.038 115.468 174.467 115.468H216.486C216.916 115.468 217.227 115.816 217.182 116.245L214.432 142.023C214.387 142.452 214.001 142.8 213.571 142.8Z" stroke="#263238" stroke-width="0.5" stroke-miterlimit="10" stroke-linecap="round" stroke-linejoin="round"/>
<path d="M121.526 211.013H119.468C119.088 211.013 118.78 210.706 118.78 210.327V160.628H122.214V210.327C122.214 210.706 121.906 211.013 121.526 211.013Z" fill="#FFD81C" stroke="#263238" stroke-width="0.5" stroke-miterlimit="10" stroke-linecap="round" stroke-linejoin="round"/>
<path d="M225.097 156.149H195.328V160.628H225.097V156.149Z" fill="#FFD81C"/>
<mask id="mask3_2012_17849" style="mask-type:luminance" maskUnits="userSpaceOnUse" x="195" y="156" width="31" height="5">
<path d="M225.097 156.149H195.328V160.628H225.097V156.149Z" fill="white"/>
</mask>
<g mask="url(#mask3_2012_17849)">
<path opacity="0.4" d="M225.097 156.149H195.328V160.628H225.097V156.149Z" fill="white"/>
</g>
<path d="M225.097 156.149H195.328V160.628H225.097V156.149Z" stroke="#263238" stroke-width="0.5" stroke-miterlimit="10" stroke-linecap="round" stroke-linejoin="round"/>
<path d="M142.803 211.013H140.745C140.365 211.013 140.057 210.706 140.057 210.327V160.628H143.492V210.327C143.492 210.706 143.183 211.013 142.803 211.013Z" fill="#FFD81C" stroke="#263238" stroke-width="0.5" stroke-miterlimit="10" stroke-linecap="round" stroke-linejoin="round"/>
<path d="M222.423 211.013H220.365C219.985 211.013 219.677 210.706 219.677 210.327V160.628H223.111V210.327C223.111 210.706 222.803 211.013 222.423 211.013Z" fill="#FFD81C" stroke="#263238" stroke-width="0.5" stroke-miterlimit="10" stroke-linecap="round" stroke-linejoin="round"/>
<path d="M203.819 156.149H116.794V160.628H203.819V156.149Z" fill="#FFD81C"/>
<mask id="mask4_2012_17849" style="mask-type:luminance" maskUnits="userSpaceOnUse" x="116" y="156" width="88" height="5">
<path d="M203.819 156.149H116.794V160.628H203.819V156.149Z" fill="white"/>
</mask>
<g mask="url(#mask4_2012_17849)">
<path opacity="0.7" d="M203.819 156.149H116.794V160.628H203.819V156.149Z" fill="white"/>
</g>
<path d="M203.819 156.149H116.794V160.628H203.819V156.149Z" stroke="#263238" stroke-width="0.5" stroke-miterlimit="10" stroke-linecap="round" stroke-linejoin="round"/>
<path d="M201.145 211.013H199.087C198.707 211.013 198.399 210.706 198.399 210.327V160.628H201.833V210.327C201.833 210.706 201.525 211.013 201.145 211.013Z" fill="#FFD81C" stroke="#263238" stroke-width="0.5" stroke-miterlimit="10" stroke-linecap="round" stroke-linejoin="round"/>
<path d="M196.852 154.303H172.006V156.149H196.852V154.303Z" fill="#FFD81C"/>
<mask id="mask5_2012_17849" style="mask-type:luminance" maskUnits="userSpaceOnUse" x="172" y="154" width="25" height="3">
<path d="M196.852 154.303H172.006V156.149H196.852V154.303Z" fill="white"/>
</mask>
<g mask="url(#mask5_2012_17849)">
<path opacity="0.4" d="M196.852 154.303H172.006V156.149H196.852V154.303Z" fill="white"/>
</g>
<path d="M196.852 154.303H172.006V156.149H196.852V154.303Z" stroke="#263238" stroke-width="0.5" stroke-miterlimit="10" stroke-linecap="round" stroke-linejoin="round"/>
<path d="M11.9555 211.013H53.3584L53.3584 156.059H11.9555L11.9555 211.013Z" fill="#FFD81C"/>
<mask id="mask6_2012_17849" style="mask-type:luminance" maskUnits="userSpaceOnUse" x="11" y="156" width="43" height="56">
<path d="M53.358 156.059H11.9551L11.9551 211.013H53.358L53.358 156.059Z" fill="white"/>
</mask>
<g mask="url(#mask6_2012_17849)">
<path opacity="0.7" d="M11.9555 211.013H53.3584L53.3584 156.059H11.9555L11.9555 211.013Z" fill="white"/>
</g>
<path d="M11.9555 211.013H53.3584L53.3584 156.059H11.9555L11.9555 211.013Z" stroke="#263238" stroke-width="0.5" stroke-miterlimit="10" stroke-linecap="round" stroke-linejoin="round"/>
<path d="M4.05746 211.013H11.9556L11.9556 156.059H4.05746L4.05746 211.013Z" fill="#FFD81C"/>
<mask id="mask7_2012_17849" style="mask-type:luminance" maskUnits="userSpaceOnUse" x="4" y="156" width="8" height="56">
<path d="M11.9552 156.059H4.05713L4.05713 211.013H11.9552L11.9552 156.059Z" fill="white"/>
</mask>
<g mask="url(#mask7_2012_17849)">
<path opacity="0.3" d="M4.05697 211.013H11.9551L11.9551 156.059H4.05697L4.05697 211.013Z" fill="white"/>
</g>
<path d="M4.05746 211.013H11.9556L11.9556 156.059H4.05746L4.05746 211.013Z" stroke="#263238" stroke-width="0.5" stroke-miterlimit="10" stroke-linecap="round" stroke-linejoin="round"/>
<path d="M14.6425 173.482H50.4585V160.137H14.6425V173.482Z" fill="white" stroke="#263238" stroke-width="0.5" stroke-miterlimit="10" stroke-linecap="round" stroke-linejoin="round"/>
<path d="M14.6425 188.285H50.4585V174.94H14.6425V188.285Z" fill="white" stroke="#263238" stroke-width="0.5" stroke-miterlimit="10" stroke-linecap="round" stroke-linejoin="round"/>
<path d="M14.6425 203.089H50.4585V189.743H14.6425V203.089Z" fill="white" stroke="#263238" stroke-width="0.5" stroke-miterlimit="10" stroke-linecap="round" stroke-linejoin="round"/>
<path d="M31.0586 166.809C31.0586 167.631 31.7265 168.298 32.5506 168.298C33.3748 168.298 34.0427 167.631 34.0427 166.809C34.0427 165.987 33.3748 165.321 32.5506 165.321C31.7265 165.321 31.0586 165.987 31.0586 166.809Z" fill="#FFD81C" stroke="#263238" stroke-width="0.5" stroke-miterlimit="10" stroke-linecap="round" stroke-linejoin="round"/>
<path d="M31.0586 181.613C31.0586 182.435 31.7265 183.101 32.5506 183.101C33.3748 183.101 34.0427 182.435 34.0427 181.613C34.0427 180.79 33.3748 180.124 32.5506 180.124C31.7265 180.124 31.0586 180.79 31.0586 181.613Z" fill="#FFD81C" stroke="#263238" stroke-width="0.5" stroke-miterlimit="10" stroke-linecap="round" stroke-linejoin="round"/>
<path d="M31.0586 196.416C31.0586 197.238 31.7265 197.904 32.5506 197.904C33.3748 197.904 34.0427 197.238 34.0427 196.416C34.0427 195.593 33.3748 194.927 32.5506 194.927C31.7265 194.927 31.0586 195.593 31.0586 196.416Z" fill="#FFD81C" stroke="#263238" stroke-width="0.5" stroke-miterlimit="10" stroke-linecap="round" stroke-linejoin="round"/>
<path d="M191.313 53.583H177.401V138.673H191.313C195.55 138.673 198.984 135.248 198.984 131.022V61.2352C198.984 57.0088 195.55 53.583 191.313 53.583Z" fill="#263238" stroke="#263238" stroke-width="0.5" stroke-miterlimit="10" stroke-linecap="round" stroke-linejoin="round"/>
<path d="M188.412 138.674H71.6001C67.3636 138.674 63.9292 135.248 63.9292 131.022V61.2349C63.9292 57.0091 67.3636 53.5833 71.6001 53.5833H188.412C192.648 53.5833 196.083 57.0091 196.083 61.2349V131.022C196.083 135.248 192.648 138.674 188.412 138.674Z" fill="#FFD81C" stroke="#263238" stroke-width="0.5" stroke-miterlimit="10" stroke-linecap="round" stroke-linejoin="round"/>
<path d="M185.723 61.6967H184.536C183.417 61.6967 182.509 60.7914 182.509 59.6746V58.4911C182.509 57.3743 183.417 56.469 184.536 56.469H185.723C186.843 56.469 187.75 57.3743 187.75 58.4911V59.6746C187.751 60.7909 186.843 61.6967 185.723 61.6967Z" fill="#999999" stroke="#263238" stroke-width="0.5" stroke-miterlimit="10" stroke-linecap="round" stroke-linejoin="round"/>
<mask id="mask8_2012_17849" style="mask-type:luminance" maskUnits="userSpaceOnUse" x="70" y="56" width="7" height="6">
<path d="M76.1339 59.0824C76.1339 60.5261 74.9603 61.6962 73.5135 61.6962C72.0661 61.6962 70.8931 60.5256 70.8931 59.0824C70.8931 57.6391 72.0661 56.4685 73.5135 56.4685C74.9608 56.4685 76.1339 57.6386 76.1339 59.0824Z" fill="white"/>
</mask>
<g mask="url(#mask8_2012_17849)">
<path opacity="0.5" d="M76.1339 59.0824C76.1339 60.5261 74.9603 61.6962 73.5135 61.6962C72.0661 61.6962 70.8931 60.5256 70.8931 59.0824C70.8931 57.6391 72.0661 56.4685 73.5135 56.4685C74.9608 56.4685 76.1339 57.6386 76.1339 59.0824Z" fill="black"/>
</g>
<path d="M76.1339 59.0824C76.1339 60.5261 74.9603 61.6962 73.5135 61.6962C72.0661 61.6962 70.8931 60.5256 70.8931 59.0824C70.8931 57.6391 72.0661 56.4685 73.5135 56.4685C74.9608 56.4685 76.1339 57.6386 76.1339 59.0824Z" stroke="#263238" stroke-width="0.5" stroke-miterlimit="10" stroke-linecap="round" stroke-linejoin="round"/>
<mask id="mask9_2012_17849" style="mask-type:luminance" maskUnits="userSpaceOnUse" x="87" y="56" width="6" height="6">
<path d="M89.7991 61.6962C91.2463 61.6962 92.4195 60.526 92.4195 59.0824C92.4195 57.6388 91.2463 56.4685 89.7991 56.4685C88.3519 56.4685 87.1787 57.6388 87.1787 59.0824C87.1787 60.526 88.3519 61.6962 89.7991 61.6962Z" fill="white"/>
</mask>
<g mask="url(#mask9_2012_17849)">
<path opacity="0.5" d="M89.7991 61.6962C91.2463 61.6962 92.4195 60.526 92.4195 59.0824C92.4195 57.6388 91.2463 56.4685 89.7991 56.4685C88.3519 56.4685 87.1787 57.6388 87.1787 59.0824C87.1787 60.526 88.3519 61.6962 89.7991 61.6962Z" fill="white" stroke="#263238" stroke-width="0.5" stroke-miterlimit="10" stroke-linecap="round" stroke-linejoin="round"/>
</g>
<path d="M89.7991 61.6962C91.2463 61.6962 92.4195 60.526 92.4195 59.0824C92.4195 57.6388 91.2463 56.4685 89.7991 56.4685C88.3519 56.4685 87.1787 57.6388 87.1787 59.0824C87.1787 60.526 88.3519 61.6962 89.7991 61.6962Z" stroke="#263238" stroke-width="0.5" stroke-miterlimit="10" stroke-linecap="round" stroke-linejoin="round"/>
<path d="M81.6561 61.6962C83.1033 61.6962 84.2765 60.526 84.2765 59.0824C84.2765 57.6388 83.1033 56.4685 81.6561 56.4685C80.2089 56.4685 79.0356 57.6388 79.0356 59.0824C79.0356 60.526 80.2089 61.6962 81.6561 61.6962Z" stroke="#263238" stroke-width="0.5" stroke-miterlimit="10" stroke-linecap="round" stroke-linejoin="round"/>
<path d="M71.6001 64.5818C69.2904 64.5818 67.4111 66.4563 67.4111 68.7603V131.022C67.4111 133.326 69.2904 135.201 71.6001 135.201H188.412C190.721 135.201 192.6 133.326 192.6 131.022V68.7603C192.6 66.4563 190.721 64.5818 188.412 64.5818H71.6001V64.5818Z" fill="#FFD81C"/>
<mask id="mask10_2012_17849" style="mask-type:luminance" maskUnits="userSpaceOnUse" x="67" y="64" width="126" height="72">
<path d="M71.6001 64.5818C69.2904 64.5818 67.4111 66.4563 67.4111 68.7603V131.022C67.4111 133.326 69.2904 135.201 71.6001 135.201H188.412C190.721 135.201 192.6 133.326 192.6 131.022V68.7603C192.6 66.4563 190.721 64.5818 188.412 64.5818H71.6001V64.5818Z" fill="white"/>
</mask>
<g mask="url(#mask10_2012_17849)">
<path opacity="0.3" d="M71.6001 64.5818C69.2904 64.5818 67.4111 66.4563 67.4111 68.7603V131.022C67.4111 133.326 69.2904 135.201 71.6001 135.201H188.412C190.721 135.201 192.6 133.326 192.6 131.022V68.7603C192.6 66.4563 190.721 64.5818 188.412 64.5818H71.6001Z" fill="black"/>
</g>
<path d="M71.6001 64.5818C69.2904 64.5818 67.4111 66.4563 67.4111 68.7603V131.022C67.4111 133.326 69.2904 135.201 71.6001 135.201H188.412C190.721 135.201 192.6 133.326 192.6 131.022V68.7603C192.6 66.4563 190.721 64.5818 188.412 64.5818H71.6001V64.5818Z" stroke="#263238" stroke-width="0.5" stroke-miterlimit="10" stroke-linecap="round" stroke-linejoin="round"/>
<path d="M71.5999 132.306H103.283C103.992 132.306 104.57 131.73 104.57 131.022V68.7602C104.57 68.0522 103.992 67.4761 103.283 67.4761H71.5999C70.89 67.4761 70.3125 68.0522 70.3125 68.7602V131.022C70.3125 131.73 70.89 132.306 71.5999 132.306Z" fill="#999999" stroke="#263238" stroke-width="0.5" stroke-miterlimit="10" stroke-linecap="round" stroke-linejoin="round"/>
<path d="M111.933 132.306H147.679C148.388 132.306 148.966 131.73 148.966 131.022V68.7602C148.966 68.0522 148.388 67.4761 147.679 67.4761H111.933C111.223 67.4761 110.646 68.0522 110.646 68.7602V131.022C110.646 131.73 111.223 132.306 111.933 132.306Z" fill="#FFD81C"/>
<mask id="mask11_2012_17849" style="mask-type:luminance" maskUnits="userSpaceOnUse" x="110" y="67" width="39" height="66">
<path d="M111.933 132.306H147.679C148.388 132.306 148.966 131.73 148.966 131.022V68.7602C148.966 68.0522 148.388 67.4761 147.679 67.4761H111.933C111.223 67.4761 110.646 68.0522 110.646 68.7602V131.022C110.646 131.73 111.223 132.306 111.933 132.306Z" fill="white"/>
</mask>
<g mask="url(#mask11_2012_17849)">
<path opacity="0.8" d="M111.933 132.306H147.679C148.388 132.306 148.966 131.73 148.966 131.022V68.7602C148.966 68.0522 148.388 67.4761 147.679 67.4761H111.933C111.223 67.4761 110.646 68.0522 110.646 68.7602V131.022C110.646 131.73 111.223 132.306 111.933 132.306Z" fill="white"/>
</g>
<path d="M111.933 132.306H147.679C148.388 132.306 148.966 131.73 148.966 131.022V68.7602C148.966 68.0522 148.388 67.4761 147.679 67.4761H111.933C111.223 67.4761 110.646 68.0522 110.646 68.7602V131.022C110.646 131.73 111.223 132.306 111.933 132.306Z" stroke="#263238" stroke-width="0.5" stroke-miterlimit="10" stroke-linecap="round" stroke-linejoin="round"/>
<path d="M186.577 67.4761H157.684C157.036 67.4761 156.51 68.0016 156.51 68.6471V72.1769H187.751V68.6471C187.751 68.0016 187.224 67.4761 186.577 67.4761Z" fill="#FFD81C" stroke="#263238" stroke-width="0.5" stroke-miterlimit="10" stroke-linecap="round" stroke-linejoin="round"/>
<path d="M183.806 68.8982H186.59" stroke="#263238" stroke-width="0.5" stroke-miterlimit="10" stroke-linecap="round" stroke-linejoin="round"/>
<path d="M183.806 69.8232H186.59" stroke="#263238" stroke-width="0.5" stroke-miterlimit="10" stroke-linecap="round" stroke-linejoin="round"/>
<path d="M186.59 70.7483H183.806" stroke="#263238" stroke-width="0.5" stroke-miterlimit="10" stroke-linecap="round" stroke-linejoin="round"/>
<path d="M172.13 72.1769L171.408 69.2513C171.15 68.209 170.213 67.4761 169.137 67.4761H157.684C157.037 67.4761 156.51 68.0016 156.51 68.6471V72.1769V86.2871C156.51 86.9331 157.037 87.4586 157.684 87.4586H186.577C187.224 87.4586 187.75 86.9336 187.75 86.2871V72.1769H172.13Z" fill="#999999" stroke="#263238" stroke-width="0.5" stroke-miterlimit="10" stroke-linecap="round" stroke-linejoin="round"/>
<path d="M69.824 128.485H81.8636C82.1333 128.485 82.3527 128.37 82.3527 128.228V115.767C82.3527 115.625 82.1333 115.51 81.8636 115.51H69.824C69.5544 115.51 69.335 115.625 69.335 115.767V128.228C69.3345 128.37 69.5544 128.485 69.824 128.485Z" fill="#FFD81C"/>
<mask id="mask12_2012_17849" style="mask-type:luminance" maskUnits="userSpaceOnUse" x="69" y="115" width="14" height="14">
<path d="M69.824 128.485H81.8636C82.1333 128.485 82.3527 128.37 82.3527 128.228V115.767C82.3527 115.625 82.1333 115.51 81.8636 115.51H69.824C69.5544 115.51 69.335 115.625 69.335 115.767V128.228C69.3345 128.37 69.5544 128.485 69.824 128.485Z" fill="white"/>
</mask>
<g mask="url(#mask12_2012_17849)">
<path opacity="0.3" d="M69.824 128.485H81.8636C82.1333 128.485 82.3527 128.37 82.3527 128.228V115.767C82.3527 115.625 82.1333 115.51 81.8636 115.51H69.824C69.5544 115.51 69.335 115.625 69.335 115.767V128.228C69.3345 128.37 69.5544 128.485 69.824 128.485Z" fill="black"/>
</g>
<path d="M69.824 128.485H81.8636C82.1333 128.485 82.3527 128.37 82.3527 128.228V115.767C82.3527 115.625 82.1333 115.51 81.8636 115.51H69.824C69.5544 115.51 69.335 115.625 69.335 115.767V128.228C69.3345 128.37 69.5544 128.485 69.824 128.485Z" stroke="#263238" stroke-width="0.5" stroke-miterlimit="10" stroke-linecap="round" stroke-linejoin="round"/>
<path d="M84.8948 128.485H96.9344C97.2041 128.485 97.4235 128.37 97.4235 128.228V115.767C97.4235 115.625 97.2041 115.51 96.9344 115.51H84.8948C84.6252 115.51 84.4058 115.625 84.4058 115.767V128.228C84.4053 128.37 84.6252 128.485 84.8948 128.485Z" fill="#FFD81C" stroke="#263238" stroke-width="0.5" stroke-miterlimit="10" stroke-linecap="round" stroke-linejoin="round"/>
<path d="M75.6272 113.367H87.6668C87.9365 113.367 88.1559 113.251 88.1559 113.11V100.649C88.1559 100.507 87.9365 100.392 87.6668 100.392H75.6272C75.3576 100.392 75.1382 100.507 75.1382 100.649V113.11C75.1382 113.251 75.3576 113.367 75.6272 113.367Z" fill="#FFD81C" stroke="#263238" stroke-width="0.5" stroke-miterlimit="10" stroke-linecap="round" stroke-linejoin="round"/>
<path d="M90.698 113.367H102.738C103.007 113.367 103.227 113.251 103.227 113.11V100.649C103.227 100.507 103.007 100.392 102.738 100.392H90.698C90.4284 100.392 90.209 100.507 90.209 100.649V113.11C90.209 113.251 90.4284 113.367 90.698 113.367Z" fill="#FFD81C" stroke="#263238" stroke-width="0.5" stroke-miterlimit="10" stroke-linecap="round" stroke-linejoin="round"/>
<path d="M74.4666 98.2475H86.5062C86.7758 98.2475 86.9952 98.1321 86.9952 97.9905V85.5295C86.9952 85.3879 86.7758 85.2725 86.5062 85.2725H74.4666C74.1969 85.2725 73.9775 85.3879 73.9775 85.5295V97.9905C73.9775 98.1321 74.1969 98.2475 74.4666 98.2475Z" fill="#FFD81C"/>
<mask id="mask13_2012_17849" style="mask-type:luminance" maskUnits="userSpaceOnUse" x="73" y="85" width="14" height="14">
<path d="M74.4666 98.2475H86.5062C86.7758 98.2475 86.9952 98.1321 86.9952 97.9905V85.5295C86.9952 85.3879 86.7758 85.2725 86.5062 85.2725H74.4666C74.1969 85.2725 73.9775 85.3879 73.9775 85.5295V97.9905C73.9775 98.1321 74.1969 98.2475 74.4666 98.2475Z" fill="white"/>
</mask>
<g mask="url(#mask13_2012_17849)">
<path opacity="0.5" d="M74.4666 98.2475H86.5062C86.7758 98.2475 86.9952 98.1321 86.9952 97.9905V85.5295C86.9952 85.3879 86.7758 85.2725 86.5062 85.2725H74.4666C74.1969 85.2725 73.9775 85.3879 73.9775 85.5295V97.9905C73.9775 98.1321 74.1969 98.2475 74.4666 98.2475Z" fill="white"/>
</g>
<path d="M74.4666 98.2475H86.5062C86.7758 98.2475 86.9952 98.1321 86.9952 97.9905V85.5295C86.9952 85.3879 86.7758 85.2725 86.5062 85.2725H74.4666C74.1969 85.2725 73.9775 85.3879 73.9775 85.5295V97.9905C73.9775 98.1321 74.1969 98.2475 74.4666 98.2475Z" stroke="#263238" stroke-width="0.5" stroke-miterlimit="10" stroke-linecap="round" stroke-linejoin="round"/>
<path d="M89.5374 98.2475H101.577C101.847 98.2475 102.066 98.1321 102.066 97.9905V85.5295C102.066 85.3879 101.847 85.2725 101.577 85.2725H89.5374C89.2677 85.2725 89.0483 85.3879 89.0483 85.5295V97.9905C89.0483 98.1321 89.2677 98.2475 89.5374 98.2475Z" fill="#FFD81C" stroke="#263238" stroke-width="0.5" stroke-miterlimit="10" stroke-linecap="round" stroke-linejoin="round"/>
<path d="M74.4666 83.1291H86.5062C86.7758 83.1291 86.9952 83.0137 86.9952 82.8721V70.4111C86.9952 70.2695 86.7758 70.1541 86.5062 70.1541H74.4666C74.1969 70.1541 73.9775 70.2695 73.9775 70.4111V82.8721C73.9775 83.0137 74.1969 83.1291 74.4666 83.1291Z" fill="#FFD81C" stroke="#263238" stroke-width="0.5" stroke-miterlimit="10" stroke-linecap="round" stroke-linejoin="round"/>
<path d="M89.5374 83.1291H101.577C101.847 83.1291 102.066 83.0137 102.066 82.8721V70.4111C102.066 70.2695 101.847 70.1541 101.577 70.1541H89.5374C89.2677 70.1541 89.0483 70.2695 89.0483 70.4111V82.8721C89.0483 83.0137 89.2677 83.1291 89.5374 83.1291Z" fill="#FFD81C"/>
<mask id="mask14_2012_17849" style="mask-type:luminance" maskUnits="userSpaceOnUse" x="89" y="70" width="14" height="14">
<path d="M89.5374 83.1291H101.577C101.847 83.1291 102.066 83.0137 102.066 82.8721V70.4111C102.066 70.2695 101.847 70.1541 101.577 70.1541H89.5374C89.2677 70.1541 89.0483 70.2695 89.0483 70.4111V82.8721C89.0483 83.0137 89.2677 83.1291 89.5374 83.1291Z" fill="white"/>
</mask>
<g mask="url(#mask14_2012_17849)">
<path opacity="0.7" d="M89.5374 83.1291H101.577C101.847 83.1291 102.066 83.0137 102.066 82.8721V70.4111C102.066 70.2695 101.847 70.1541 101.577 70.1541H89.5374C89.2677 70.1541 89.0483 70.2695 89.0483 70.4111V82.8721C89.0483 83.0137 89.2677 83.1291 89.5374 83.1291Z" fill="white"/>
</g>
<path d="M89.5374 83.1291H101.577C101.847 83.1291 102.066 83.0137 102.066 82.8721V70.4111C102.066 70.2695 101.847 70.1541 101.577 70.1541H89.5374C89.2677 70.1541 89.0483 70.2695 89.0483 70.4111V82.8721C89.0483 83.0137 89.2677 83.1291 89.5374 83.1291Z" stroke="#263238" stroke-width="0.5" stroke-miterlimit="10" stroke-linecap="round" stroke-linejoin="round"/>
<path d="M184.025 117.189H155.132C154.727 117.189 154.37 117.394 154.158 117.706C154.032 117.893 153.958 118.118 153.958 118.36V136C153.958 136.646 154.484 137.172 155.132 137.172H184.025C184.672 137.172 185.198 136.646 185.198 136V118.36C185.198 117.715 184.671 117.189 184.025 117.189Z" fill="#263238" stroke="#263238" stroke-width="0.5" stroke-miterlimit="10" stroke-linecap="round" stroke-linejoin="round"/>
<path d="M182.081 116.61H153.188C152.54 116.61 152.014 117.136 152.014 117.781V121.311H183.255V117.781C183.255 117.136 182.728 116.61 182.081 116.61Z" fill="#FFD81C" stroke="#263238" stroke-width="0.5" stroke-miterlimit="10" stroke-linecap="round" stroke-linejoin="round"/>
<path d="M179.311 118.036H182.094" stroke="#263238" stroke-width="0.5" stroke-miterlimit="10" stroke-linecap="round" stroke-linejoin="round"/>
<path d="M179.311 118.961H182.094" stroke="#263238" stroke-width="0.5" stroke-miterlimit="10" stroke-linecap="round" stroke-linejoin="round"/>
<path d="M182.094 119.886H179.311" stroke="#263238" stroke-width="0.5" stroke-miterlimit="10" stroke-linecap="round" stroke-linejoin="round"/>
<path d="M167.634 121.311L166.912 118.386C166.654 117.343 165.717 116.61 164.641 116.61H153.188C152.541 116.61 152.014 117.136 152.014 117.781V121.311V135.421C152.014 136.067 152.541 136.593 153.188 136.593H182.081C182.728 136.593 183.254 136.067 183.254 135.421V121.311H167.634Z" fill="#999999" stroke="#263238" stroke-width="0.5" stroke-miterlimit="10" stroke-linecap="round" stroke-linejoin="round"/>
<path d="M182.857 90.468H153.964C153.559 90.468 153.202 90.6731 152.991 90.9848C152.864 91.1715 152.79 91.3968 152.79 91.6391V109.279C152.79 109.925 153.316 110.45 153.964 110.45H182.857C183.504 110.45 184.03 109.925 184.03 109.279V91.6391C184.031 90.9935 183.504 90.468 182.857 90.468Z" fill="#263238" stroke="#263238" stroke-width="0.5" stroke-miterlimit="10" stroke-linecap="round" stroke-linejoin="round"/>
<path d="M182.081 89.6216H153.188C152.54 89.6216 152.014 90.1471 152.014 90.7926V94.3224H183.255V90.7926C183.255 90.1471 182.728 89.6216 182.081 89.6216Z" fill="#FFD81C" stroke="#263238" stroke-width="0.5" stroke-miterlimit="10" stroke-linecap="round" stroke-linejoin="round"/>
<path d="M179.311 91.0469H182.094" stroke="#263238" stroke-width="0.5" stroke-miterlimit="10" stroke-linecap="round" stroke-linejoin="round"/>
<path d="M179.311 91.9719H182.094" stroke="#263238" stroke-width="0.5" stroke-miterlimit="10" stroke-linecap="round" stroke-linejoin="round"/>
<path d="M182.094 92.8975H179.311" stroke="#263238" stroke-width="0.5" stroke-miterlimit="10" stroke-linecap="round" stroke-linejoin="round"/>
<path d="M167.634 94.3224L166.912 91.3968C166.654 90.3545 165.717 89.6216 164.641 89.6216H153.188C152.541 89.6216 152.014 90.1471 152.014 90.7926V94.3224V108.433C152.014 109.079 152.541 109.604 153.188 109.604H182.081C182.728 109.604 183.254 109.079 183.254 108.433V94.3224H167.634Z" fill="#999999" stroke="#263238" stroke-width="0.5" stroke-miterlimit="10" stroke-linecap="round" stroke-linejoin="round"/>
<path d="M73.761 143.977H85.8006C86.0703 143.977 86.2897 143.861 86.2897 143.719V131.258C86.2897 131.117 86.0703 131.001 85.8006 131.001H73.761C73.4914 131.001 73.272 131.117 73.272 131.258V143.719C73.272 143.861 73.4914 143.977 73.761 143.977Z" fill="#FFD81C" stroke="#263238" stroke-width="0.5" stroke-miterlimit="10" stroke-linecap="round" stroke-linejoin="round"/>
<path d="M166.46 132.152H137.567C136.92 132.152 136.393 132.677 136.393 133.323V136.853H167.634V133.323C167.634 132.678 167.107 132.152 166.46 132.152Z" fill="#FFD81C" stroke="#263238" stroke-width="0.5" stroke-miterlimit="10" stroke-linecap="round" stroke-linejoin="round"/>
<path d="M163.69 133.578H166.474" stroke="#263238" stroke-width="0.5" stroke-miterlimit="10" stroke-linecap="round" stroke-linejoin="round"/>
<path d="M163.69 134.503H166.474" stroke="#263238" stroke-width="0.5" stroke-miterlimit="10" stroke-linecap="round" stroke-linejoin="round"/>
<path d="M166.474 135.428H163.69" stroke="#263238" stroke-width="0.5" stroke-miterlimit="10" stroke-linecap="round" stroke-linejoin="round"/>
<path d="M152.014 136.853L151.291 133.928C151.034 132.885 150.097 132.152 149.02 132.152H137.567C136.92 132.152 136.393 132.677 136.393 133.323V136.853V150.963C136.393 151.609 136.92 152.135 137.567 152.135H166.46C167.107 152.135 167.634 151.609 167.634 150.963V136.853H152.014Z" fill="#999999" stroke="#263238" stroke-width="0.5" stroke-miterlimit="10" stroke-linecap="round" stroke-linejoin="round"/>
<path d="M187.751 50.2896H189.923" stroke="#263238" stroke-width="0.5" stroke-miterlimit="10" stroke-linecap="round" stroke-linejoin="round"/>
<path d="M179.311 50.2896H185.198" stroke="#263238" stroke-width="0.5" stroke-miterlimit="10" stroke-linecap="round" stroke-linejoin="round"/>
<path d="M115.938 50.2896H174.164" stroke="#263238" stroke-width="0.5" stroke-miterlimit="10" stroke-linecap="round" stroke-linejoin="round"/>
<path d="M109.361 50.2896H112.843" stroke="#263238" stroke-width="0.5" stroke-miterlimit="10" stroke-linecap="round" stroke-linejoin="round"/>
<path d="M142.233 120.76C142.268 120.298 142.291 119.833 142.291 119.363C142.291 118.892 142.268 118.428 142.233 117.966L137.946 117.411C137.714 115.754 137.195 114.189 136.436 112.77L139.58 109.806C139.088 109.01 138.535 108.257 137.93 107.549L134.133 109.615C132.998 108.443 131.662 107.466 130.178 106.744L130.975 102.502C130.118 102.149 129.228 101.862 128.312 101.641L126.456 105.541C125.662 105.402 124.845 105.326 124.011 105.326C123.177 105.326 122.361 105.402 121.566 105.541L119.71 101.641C118.794 101.862 117.904 102.15 117.047 102.502L117.844 106.744C116.36 107.466 115.024 108.443 113.889 109.615L110.092 107.549C109.487 108.257 108.934 109.01 108.443 109.806L111.586 112.77C110.827 114.189 110.308 115.754 110.077 117.411L105.789 117.966C105.754 118.428 105.73 118.892 105.73 119.363C105.73 119.833 105.754 120.298 105.789 120.76L110.077 121.314C110.308 122.972 110.828 124.536 111.586 125.956L108.443 128.92C108.934 129.715 109.487 130.468 110.092 131.177L113.889 129.111C115.024 130.283 116.36 131.26 117.844 131.982L117.047 136.224C117.904 136.576 118.794 136.864 119.71 137.085L121.566 133.185C122.361 133.324 123.177 133.4 124.011 133.4C124.846 133.4 125.662 133.324 126.456 133.185L128.312 137.085C129.228 136.864 130.118 136.576 130.975 136.224L130.178 131.982C131.662 131.26 132.998 130.283 134.133 129.111L137.93 131.177C138.535 130.469 139.088 129.716 139.58 128.92L136.436 125.956C137.195 124.536 137.714 122.972 137.946 121.314L142.233 120.76ZM124.011 108.943C127.381 108.943 130.37 110.541 132.28 113.012L125.56 116.108C125.09 115.885 124.566 115.757 124.011 115.757C123.456 115.757 122.933 115.885 122.463 116.108L115.743 113.012C117.653 110.541 120.642 108.943 124.011 108.943ZM113.565 119.363C113.565 117.974 113.843 116.651 114.338 115.439L120.415 119.717C120.52 120.787 121.094 121.718 121.929 122.307L122.602 129.677C117.501 128.989 113.565 124.639 113.565 119.363ZM125.421 129.677L126.094 122.306C126.929 121.717 127.504 120.787 127.608 119.716L133.685 115.439C134.18 116.65 134.458 117.973 134.458 119.362C134.457 124.639 130.521 128.989 125.421 129.677Z" fill="#263238" stroke="#263238" stroke-width="0.5" stroke-miterlimit="10" stroke-linecap="round" stroke-linejoin="round"/>
<path d="M125.53 119.363C125.53 120.199 124.85 120.877 124.011 120.877C123.173 120.877 122.493 120.199 122.493 119.363C122.493 118.526 123.173 117.848 124.011 117.848C124.85 117.848 125.53 118.526 125.53 119.363Z" fill="white" stroke="#263238" stroke-width="0.5" stroke-miterlimit="10" stroke-linecap="round" stroke-linejoin="round"/>
<path d="M142.172 89.3224C142.197 88.9923 142.214 88.6603 142.214 88.3237C142.214 87.9872 142.197 87.6552 142.172 87.3251L139.107 86.9283C138.941 85.7434 138.57 84.6248 138.027 83.6096L140.275 81.4905C139.923 80.9217 139.528 80.3833 139.095 79.8771L136.38 81.3544C135.569 80.5162 134.614 79.8178 133.553 79.301L134.122 76.2683C133.51 76.0163 132.874 75.8103 132.219 75.6531L130.892 78.4412C130.323 78.3419 129.74 78.2872 129.143 78.2872C128.547 78.2872 127.963 78.3419 127.395 78.4412L126.068 75.6531C125.413 75.8108 124.777 76.0163 124.164 76.2683L124.734 79.301C123.673 79.8178 122.718 80.5162 121.906 81.3544L119.191 79.8771C118.759 80.3833 118.364 80.9217 118.012 81.4905L120.259 83.6096C119.717 84.6243 119.345 85.743 119.18 86.9283L116.115 87.3251C116.089 87.6552 116.073 87.9872 116.073 88.3237C116.073 88.6603 116.09 88.9923 116.115 89.3224L119.18 89.7192C119.345 90.904 119.717 92.0227 120.259 93.0379L118.012 95.1575C118.364 95.7262 118.759 96.2646 119.191 96.7708L121.906 95.2936C122.718 96.1317 123.673 96.8302 124.734 97.3469L124.164 100.38C124.777 100.632 125.413 100.837 126.068 100.995L127.395 98.2067C127.963 98.3061 128.547 98.3608 129.143 98.3608C129.74 98.3608 130.323 98.3061 130.892 98.2067L132.219 100.995C132.874 100.837 133.51 100.632 134.122 100.38L133.553 97.3469C134.614 96.8302 135.569 96.1317 136.38 95.2936L139.095 96.7708C139.528 96.2646 139.923 95.7258 140.275 95.1575L138.027 93.0379C138.57 92.0231 138.941 90.9045 139.107 89.7192L142.172 89.3224ZM129.144 80.8734C131.553 80.8734 133.69 82.0165 135.056 83.7829L130.251 85.9963C129.915 85.8368 129.541 85.7453 129.144 85.7453C128.747 85.7453 128.373 85.8372 128.037 85.9963L123.232 83.7825C124.598 82.0165 126.735 80.8734 129.144 80.8734ZM121.675 88.3237C121.675 87.3306 121.874 86.3848 122.228 85.5186L126.572 88.5771C126.647 89.3421 127.058 90.0079 127.655 90.4286L128.137 95.6982C124.489 95.2062 121.675 92.0962 121.675 88.3237ZM130.151 95.6977L130.633 90.4282C131.23 90.007 131.64 89.3417 131.715 88.5766L136.06 85.5181C136.413 86.3844 136.612 87.3302 136.612 88.3233C136.612 92.0962 133.798 95.2062 130.151 95.6977Z" fill="#757575" stroke="#263238" stroke-width="0.5" stroke-miterlimit="10" stroke-linecap="round" stroke-linejoin="round"/>
<path d="M129.144 89.4065C129.744 89.4065 130.23 88.9218 130.23 88.3238C130.23 87.7257 129.744 87.241 129.144 87.241C128.545 87.241 128.059 87.7257 128.059 88.3238C128.059 88.9218 128.545 89.4065 129.144 89.4065Z" fill="white" stroke="#263238" stroke-width="0.5" stroke-miterlimit="10" stroke-linecap="round" stroke-linejoin="round"/>
<path d="M108.756 132.913C108.772 132.693 108.784 132.472 108.784 132.247C108.784 132.023 108.773 131.802 108.756 131.581L106.713 131.317C106.602 130.527 106.355 129.781 105.993 129.105L107.491 127.692C107.256 127.313 106.993 126.954 106.705 126.617L104.895 127.602C104.354 127.043 103.717 126.577 103.01 126.233L103.39 124.211C102.982 124.043 102.558 123.906 102.121 123.801L101.237 125.66C100.858 125.594 100.469 125.557 100.071 125.557C99.6732 125.557 99.2841 125.594 98.9053 125.66L98.0207 123.801C97.5842 123.906 97.1602 124.043 96.7518 124.211L97.1316 126.233C96.4245 126.577 95.7875 127.043 95.2468 127.602L93.4367 126.617C93.1486 126.954 92.885 127.313 92.6508 127.692L94.1489 129.105C93.7875 129.781 93.5395 130.527 93.4294 131.317L91.386 131.581C91.3694 131.801 91.3579 132.023 91.3579 132.247C91.3579 132.472 91.369 132.693 91.386 132.913L93.4294 133.177C93.5395 133.967 93.7875 134.713 94.1489 135.39L92.6504 136.803C92.885 137.182 93.1482 137.541 93.4363 137.878L95.2464 136.893C95.787 137.452 96.424 137.918 97.1311 138.262L96.7513 140.284C97.1597 140.452 97.5837 140.589 98.0203 140.694L98.9048 138.835C99.2837 138.901 99.6722 138.938 100.07 138.938C100.468 138.938 100.857 138.902 101.236 138.835L102.121 140.694C102.558 140.589 102.982 140.452 103.39 140.284L103.01 138.262C103.717 137.918 104.354 137.452 104.895 136.893L106.705 137.878C106.993 137.541 107.256 137.182 107.491 136.803L105.993 135.39C106.354 134.713 106.602 133.968 106.712 133.177L108.756 132.913ZM100.071 127.281C101.677 127.281 103.102 128.043 104.012 129.22L100.809 130.696C100.585 130.59 100.336 130.529 100.071 130.529C99.8064 130.529 99.557 130.59 99.333 130.696L96.13 129.22C97.0403 128.043 98.4651 127.281 100.071 127.281ZM95.0924 132.247C95.0924 131.585 95.2247 130.955 95.4607 130.377L98.3572 132.416C98.407 132.926 98.6808 133.37 99.079 133.65L99.3998 137.163C96.9679 136.835 95.0924 134.762 95.0924 132.247ZM100.743 137.163L101.064 133.65C101.462 133.37 101.735 132.926 101.785 132.416L104.682 130.377C104.917 130.955 105.05 131.585 105.05 132.247C105.05 134.762 103.174 136.835 100.743 137.163Z" fill="white" stroke="#263238" stroke-width="0.5" stroke-miterlimit="10" stroke-linecap="round" stroke-linejoin="round"/>
<path d="M100.795 132.247C100.795 132.646 100.47 132.969 100.071 132.969C99.6712 132.969 99.3472 132.646 99.3472 132.247C99.3472 131.849 99.6712 131.525 100.071 131.525C100.47 131.525 100.795 131.849 100.795 132.247Z" stroke="#263238" stroke-width="0.5" stroke-miterlimit="10" stroke-linecap="round" stroke-linejoin="round"/>
<path d="M45.502 136.373L66.911 134.607L55.7463 178.884L38.8516 205.322L32.0386 201.775C32.0386 201.775 39.98 182.295 45.7836 175.156C45.7836 175.156 47.0143 161.016 48.1399 153.614C48.1399 153.614 46.0362 143.274 45.502 136.373Z" fill="#858585"/>
<mask id="mask15_2012_17849" style="mask-type:luminance" maskUnits="userSpaceOnUse" x="32" y="134" width="35" height="72">
<path d="M45.502 136.373L66.911 134.607L55.7463 178.884L38.8516 205.322L32.0386 201.775C32.0386 201.775 39.98 182.295 45.7836 175.156C45.7836 175.156 47.0143 161.016 48.1399 153.614C48.1399 153.614 46.0362 143.274 45.502 136.373Z" fill="white"/>
</mask>
<g mask="url(#mask15_2012_17849)">
<path d="M60.3751 135.146L51.0952 135.912C51.0952 135.912 50.3558 145.488 57.4648 152.772L60.7872 158.892L64.0843 145.816L60.3751 135.146Z" fill="#263238" stroke="#263238" stroke-width="0.5" stroke-miterlimit="10" stroke-linecap="round" stroke-linejoin="round"/>
</g>
<path d="M45.502 136.373L66.911 134.607L55.7463 178.884L38.8516 205.322L32.0386 201.775C32.0386 201.775 39.98 182.295 45.7836 175.156C45.7836 175.156 47.0143 161.016 48.1399 153.614C48.1399 153.614 46.0362 143.274 45.502 136.373Z" stroke="#263238" stroke-width="0.5" stroke-miterlimit="10" stroke-linecap="round" stroke-linejoin="round"/>
<path d="M45.5934 178.346C45.2168 178.549 44.8499 178.815 44.5015 179.16" stroke="#263238" stroke-width="0.5" stroke-miterlimit="10" stroke-linecap="round" stroke-linejoin="round"/>
<path d="M47.2317 174.963C47.2317 174.963 51.4097 174.239 52.2716 177.133C52.9473 179.402 49.9042 177.268 46.8994 177.878" stroke="#263238" stroke-width="0.5" stroke-miterlimit="10" stroke-linecap="round" stroke-linejoin="round"/>
<path d="M52.2744 136.344L69.3834 133.862L80.5481 168.869L89.8885 200.379L82.2084 203.368C82.2084 203.368 73.1662 183.866 71.0814 173.239C71.0814 173.239 62.733 159.06 59.7715 152.25C59.7715 152.25 52.3823 146.93 52.2744 136.344Z" fill="#999999" stroke="#263238" stroke-width="0.5" stroke-miterlimit="10" stroke-linecap="round" stroke-linejoin="round"/>
<path d="M68.0796 151.985C68.8185 152.083 69.5288 152.312 70.157 152.772" stroke="#263238" stroke-width="0.5" stroke-miterlimit="10" stroke-linecap="round" stroke-linejoin="round"/>
<path d="M66.4817 147.948C65.2487 148.99 60.2914 149.404 61.452 151.421C62.1434 152.622 64.071 152.118 66.1296 151.963" stroke="#263238" stroke-width="0.5" stroke-miterlimit="10" stroke-linecap="round" stroke-linejoin="round"/>
<path d="M72.2231 172.502C72.2231 172.502 74.7514 170.91 76.7822 172.502" stroke="#263238" stroke-width="0.5" stroke-miterlimit="10" stroke-linecap="round" stroke-linejoin="round"/>
<path d="M41.0431 215.757L26.3223 207.436L26.7265 206.477L27.3105 206.651C27.3105 206.651 28.2656 205.292 30.6352 202.384C30.6352 202.384 31.5926 199.19 33.5529 196.657C33.5529 196.657 42.8947 199.618 41.4082 203.129L39.4105 206.6C39.4105 206.6 40.7606 208.922 42.4066 211.057C42.4066 211.057 44.6024 212.462 45.1685 212.583C47.1998 213.016 46.6633 214.917 46.6633 214.917L47.2312 215.039L46.873 216.041L41.0431 215.757Z" fill="#FFD81C" stroke="#263238" stroke-width="0.5" stroke-miterlimit="10" stroke-linecap="round" stroke-linejoin="round"/>
<path d="M36.8256 197.963V197.962C35.0943 197.147 33.553 196.658 33.553 196.658C31.5926 199.191 30.6353 202.385 30.6353 202.385C34.5679 204.822 36.8256 197.963 36.8256 197.963Z" fill="#FFD81C"/>
<mask id="mask16_2012_17849" style="mask-type:luminance" maskUnits="userSpaceOnUse" x="30" y="196" width="7" height="7">
<path d="M36.8256 197.963V197.962C35.0943 197.147 33.553 196.658 33.553 196.658C31.5926 199.191 30.6353 202.385 30.6353 202.385C34.5679 204.822 36.8256 197.963 36.8256 197.963Z" fill="white"/>
</mask>
<g mask="url(#mask16_2012_17849)">
<path opacity="0.5" d="M36.8256 197.963V197.962C35.0943 197.147 33.553 196.658 33.553 196.658C31.5926 199.191 30.6353 202.385 30.6353 202.385C34.5679 204.822 36.8256 197.963 36.8256 197.963Z" fill="black"/>
</g>
<path d="M36.8256 197.963V197.962C35.0943 197.147 33.553 196.658 33.553 196.658C31.5926 199.191 30.6353 202.385 30.6353 202.385C34.5679 204.822 36.8256 197.963 36.8256 197.963Z" stroke="#263238" stroke-width="0.5" stroke-miterlimit="10" stroke-linecap="round" stroke-linejoin="round"/>
<path d="M39.9092 207.389C39.9092 207.389 39.1833 208.55 37.7373 208.398" stroke="#263238" stroke-width="0.5" stroke-miterlimit="10" stroke-linecap="round" stroke-linejoin="round"/>
<path d="M40.743 208.638C40.743 208.638 40.5259 209.643 38.9468 210.088" stroke="#263238" stroke-width="0.5" stroke-miterlimit="10" stroke-linecap="round" stroke-linejoin="round"/>
<path d="M41.5881 209.899C41.5881 209.899 41.866 210.881 40.1675 211.79" stroke="#263238" stroke-width="0.5" stroke-miterlimit="10" stroke-linecap="round" stroke-linejoin="round"/>
<path d="M42.7344 214.554L45.5899 214.76" stroke="#263238" stroke-width="0.5" stroke-miterlimit="10" stroke-linecap="round" stroke-linejoin="round"/>
<path d="M30.019 208.189L41.1068 214.437L42.108 213.168" stroke="#263238" stroke-width="0.5" stroke-miterlimit="10" stroke-linecap="round" stroke-linejoin="round"/>
<path d="M28.3252 207.234L29.0913 207.666" stroke="#263238" stroke-width="0.5" stroke-miterlimit="10" stroke-linecap="round" stroke-linejoin="round"/>
<path d="M80.9897 202.285C80.9897 202.285 89.299 197.1 91.0201 200.503L92.3785 204.268C92.3785 204.268 99.0524 205.281 101.083 204.847C103.115 204.413 103.404 206.366 103.404 206.366L103.973 206.246L104.058 207.307L84.544 214.76L84.0725 213.832L84.5841 213.501C84.5841 213.501 84.1633 211.895 83.476 208.211C83.476 208.211 81.6558 205.415 80.9897 202.285Z" fill="#FFD81C" stroke="#263238" stroke-width="0.5" stroke-miterlimit="10" stroke-linecap="round" stroke-linejoin="round"/>
<path d="M84.1052 200.642C82.361 201.429 80.9897 202.285 80.9897 202.285C81.6558 205.415 83.476 208.211 83.476 208.211C87.8844 206.799 84.1052 200.642 84.1052 200.642Z" fill="#FFD81C"/>
<mask id="mask17_2012_17849" style="mask-type:luminance" maskUnits="userSpaceOnUse" x="80" y="200" width="6" height="9">
<path d="M84.1052 200.642C82.361 201.429 80.9897 202.285 80.9897 202.285C81.6558 205.415 83.476 208.211 83.476 208.211C87.8844 206.799 84.1052 200.642 84.1052 200.642Z" fill="white"/>
</mask>
<g mask="url(#mask17_2012_17849)">
<path opacity="0.5" d="M84.1052 200.642C82.361 201.429 80.9897 202.285 80.9897 202.285C81.6558 205.415 83.476 208.211 83.476 208.211C87.8844 206.799 84.1052 200.642 84.1052 200.642Z" fill="black"/>
</g>
<path d="M84.1052 200.642C82.361 201.429 80.9897 202.285 80.9897 202.285C81.6558 205.415 83.476 208.211 83.476 208.211C87.8844 206.799 84.1052 200.642 84.1052 200.642Z" stroke="#263238" stroke-width="0.5" stroke-miterlimit="10" stroke-linecap="round" stroke-linejoin="round"/>
<path d="M101.697 207.053L102.612 206.704" stroke="#263238" stroke-width="0.5" stroke-miterlimit="10" stroke-linecap="round" stroke-linejoin="round"/>
<path d="M89.2173 211.813L100.542 207.493" stroke="#263238" stroke-width="0.5" stroke-miterlimit="10" stroke-linecap="round" stroke-linejoin="round"/>
<path d="M85.3784 213.277L86.9963 212.659" stroke="#263238" stroke-width="0.5" stroke-miterlimit="10" stroke-linecap="round" stroke-linejoin="round"/>
<path d="M93.3036 204.399C93.3036 204.399 93.7203 205.702 92.6685 206.704" stroke="#263238" stroke-width="0.5" stroke-miterlimit="10" stroke-linecap="round" stroke-linejoin="round"/>
<path d="M94.7975 204.574C94.7975 204.574 95.4253 205.389 94.7432 206.879" stroke="#263238" stroke-width="0.5" stroke-miterlimit="10" stroke-linecap="round" stroke-linejoin="round"/>
<path d="M96.3086 204.748C96.3086 204.748 97.2392 205.172 96.8341 207.053" stroke="#263238" stroke-width="0.5" stroke-miterlimit="10" stroke-linecap="round" stroke-linejoin="round"/>
<path d="M40.3669 88.9026C40.3669 88.9026 37.9004 91.4594 37.1749 95.8007C36.4494 100.142 33.0108 109.398 34.1281 110.087C35.2454 110.777 45.5929 118.377 45.5929 118.377L50.1354 114.18L43.7036 105.976L46.8997 92.0383L40.3669 88.9026Z" fill="#FFD81C"/>
<mask id="mask18_2012_17849" style="mask-type:luminance" maskUnits="userSpaceOnUse" x="33" y="88" width="18" height="31">
<path d="M40.3669 88.9026C40.3669 88.9026 37.9004 91.4594 37.1749 95.8007C36.4494 100.142 33.0108 109.398 34.1281 110.087C35.2454 110.777 45.5929 118.377 45.5929 118.377L50.1354 114.18L43.7036 105.976L46.8997 92.0383L40.3669 88.9026Z" fill="white"/>
</mask>
<g mask="url(#mask18_2012_17849)">
<path opacity="0.3" d="M40.3669 88.9026C40.3669 88.9026 37.9004 91.4594 37.1749 95.8007C36.4494 100.142 33.0108 109.398 34.1281 110.087C35.2454 110.777 45.5929 118.377 45.5929 118.377L50.1354 114.18L43.7036 105.976L46.8997 92.0383L40.3669 88.9026Z" fill="black"/>
</g>
<path d="M40.3669 88.9026C40.3669 88.9026 37.9004 91.4594 37.1749 95.8007C36.4494 100.142 33.0108 109.398 34.1281 110.087C35.2454 110.777 45.5929 118.377 45.5929 118.377L50.1354 114.18L43.7036 105.976L46.8997 92.0383L40.3669 88.9026Z" stroke="#263238" stroke-width="0.5" stroke-miterlimit="10" stroke-linecap="round" stroke-linejoin="round"/>
<path d="M35.9902 108.256C35.9902 108.256 38.1811 105.994 41.3048 107.048" stroke="#263238" stroke-width="0.5" stroke-miterlimit="10" stroke-linecap="round" stroke-linejoin="round"/>
<path d="M26.4989 128.921C29.0391 131.287 32.7708 132.212 36.2849 131.002C39.6018 129.861 41.8885 127.1 42.5873 123.914L117.212 98.2269C119.731 100.305 123.238 101.071 126.555 99.9295C130.069 98.7198 132.435 95.6958 132.972 92.2704V91.1127L125.777 93.5896L122.017 90.3339L122.82 86.1995L130.015 83.7226V82.5649C127.475 80.1989 123.743 79.2738 120.228 80.4835C116.911 81.6251 114.625 84.3857 113.926 87.5715L39.3018 113.259C36.7818 111.181 33.275 110.415 29.9582 111.557C26.444 112.767 24.0785 115.791 23.5415 119.216V120.374L30.7367 117.897L34.4965 121.153L33.694 125.287L26.4989 127.764V128.921Z" fill="#CBF2D6" stroke="#263238" stroke-width="0.5" stroke-miterlimit="10" stroke-linecap="round" stroke-linejoin="round"/>
<path d="M121.825 90.1667L122.82 85.0415L130.015 82.5647C127.475 80.1986 123.743 79.2736 120.228 80.4832C116.911 81.6249 114.625 84.3854 113.926 87.5712L39.3018 113.259C36.7818 111.181 33.275 110.415 29.9582 111.557C26.444 112.766 24.0785 115.79 23.5415 119.216L30.7367 116.739L34.6892 120.161L33.694 125.286L26.4989 127.763C29.0391 130.129 32.7708 131.054 36.2849 129.844C39.6018 128.703 41.8885 125.942 42.5873 122.756L117.212 97.0685C119.732 99.1467 123.238 99.9127 126.555 98.7706C130.069 97.5609 132.435 94.5369 132.972 91.1116L125.777 93.5884L121.825 90.1667Z" fill="#858585" stroke="#263238" stroke-width="0.5" stroke-miterlimit="10" stroke-linecap="round" stroke-linejoin="round"/>
<path d="M65.3825 74.1545C65.3825 74.1545 63.9356 71.2947 63.7236 70.2574C63.5733 69.5199 63.8747 67.9852 63.7236 67.2477C63.3696 65.5235 60.9492 60.7744 60.9492 60.7744C60.9492 60.7744 60.8616 60.5353 60.5178 60.2664L59.1027 62.008H55.2511L49.3774 69.7489L52.2721 76.6971L51.4212 77.6994C51.9421 78.2112 52.2721 78.5059 52.2721 78.5059L51.4212 83.5479L59.7056 84.386L59.9245 81.1832H62.4422C63.1501 81.1832 63.7236 80.6108 63.7236 79.905V75.5265L64.8805 75.1996C65.329 75.0732 65.5645 74.5826 65.3825 74.1545Z" fill="white" stroke="#263238" stroke-width="0.5" stroke-miterlimit="10" stroke-linecap="round" stroke-linejoin="round"/>
<path d="M52.2718 78.5064L53.6831 75.7477C53.6831 75.7477 50.6396 74.6649 51.2701 71.9545C51.9007 69.2441 54.4395 71.543 54.4395 71.543H55.2503L55.9661 68.4101C55.9661 68.4101 57.7334 66.5185 57.6098 65.8551C57.4863 65.1921 57.23 64.4353 57.23 64.4353C57.23 64.4353 62.9345 63.564 62.1924 60.2186C61.4508 56.8732 53.7956 58.1413 53.7956 58.1413C53.7956 58.1413 51.5379 54.1205 45.7343 61.9354C45.7343 61.9354 41.5016 64.3456 44.5972 69.3995C47.6933 74.4544 52.2718 78.5064 52.2718 78.5064Z" fill="#263238" stroke="#263238" stroke-width="0.5" stroke-miterlimit="10" stroke-linecap="round" stroke-linejoin="round"/>
<path d="M55.2508 65.3374C55.2508 65.3374 50.8129 74.1652 47.0406 74.8167L45.8076 73.1523C45.8076 73.1523 46.0252 71.7445 48.4193 71.544C48.4193 71.544 50.676 70.5504 53.3522 65.856L55.2508 65.3374Z" fill="#858585" stroke="#263238" stroke-width="0.5" stroke-miterlimit="10" stroke-linecap="round" stroke-linejoin="round"/>
<path d="M59.7056 74.8164C59.7056 74.8164 60.6625 75.9751 62.1928 75.7511" stroke="#263238" stroke-width="0.5" stroke-miterlimit="10" stroke-linecap="round" stroke-linejoin="round"/>
<path d="M62.1929 69.4007C62.1929 69.7942 62.0441 70.1133 61.8601 70.1133C61.6762 70.1133 61.5273 69.7942 61.5273 69.4007C61.5273 69.0071 61.6762 68.688 61.8601 68.688C62.0436 68.688 62.1929 69.0071 62.1929 69.4007Z" fill="#263238"/>
<path d="M62.193 66.6988C62.193 66.6988 60.5489 66.3319 59.9243 67.897" stroke="#263238" stroke-width="0.5" stroke-miterlimit="10" stroke-linecap="round" stroke-linejoin="round"/>
<path d="M45.728 71.698C45.3869 72.1468 44.695 72.0916 44.4346 71.5928C42.9711 68.7895 39.9626 61.2674 48.0257 57.5538C57.6104 53.1394 62.7424 59.1515 62.7424 59.1515L65.2909 59.4228L65.9717 60.6072L46.7969 70.292L45.728 71.698Z" fill="#FFD81C" stroke="#263238" stroke-width="0.5" stroke-miterlimit="10" stroke-linecap="round" stroke-linejoin="round"/>
<path d="M47.9506 84.9467C47.9506 84.9467 49.0886 82.3416 52.2718 82.1972C55.4555 82.0524 60.3474 82.4869 61.6011 85.5256C61.6011 85.5256 68.4746 87.5091 70.0607 92.3759C71.6463 97.2422 69.384 119.68 69.384 119.68C69.384 119.68 71.4149 128.652 70.1575 134.634C70.1575 134.634 63.1937 137.017 44.3327 137.417C44.3327 137.417 42.9504 125.797 43.7381 121.677C43.7381 121.677 38.2392 92.6655 40.3668 88.9031C42.4945 85.1398 47.9506 84.9467 47.9506 84.9467Z" fill="#263238" stroke="#263238" stroke-width="0.5" stroke-miterlimit="10"/>
<path d="M51.5382 106.744C45.9125 106.616 42.986 108.002 41.5986 109.028C41.8761 110.858 42.1591 112.62 42.4251 114.217C43.2912 113.5 45.5751 112.702 51.3935 112.588C60.2554 112.415 67.4303 114.391 69.7944 115.133C69.9239 113.574 70.0673 111.722 70.1982 109.748C67.0491 108.93 58.5905 106.903 51.5382 106.744Z" fill="#FFD81C" stroke="#263238" stroke-width="0.5" stroke-miterlimit="10" stroke-linecap="round" stroke-linejoin="round"/>
<path d="M69.3835 119.68C69.3835 119.68 69.4268 119.251 69.4969 118.502C66.8617 117.847 59.4333 116.157 52.3146 115.995C46.4677 115.863 44.0418 117.112 43.0674 117.975C43.4661 120.244 43.738 121.677 43.738 121.677C43.6846 121.956 43.6422 122.271 43.6076 122.613C44.7097 121.98 47.095 121.361 52.1694 121.262C60.4898 121.099 67.3194 122.83 70.08 123.657C69.7532 121.317 69.3835 119.68 69.3835 119.68Z" fill="#FFD81C" stroke="#263238" stroke-width="0.5" stroke-miterlimit="10" stroke-linecap="round" stroke-linejoin="round"/>
<path d="M58.4995 85.0999C58.8936 85.1969 59.296 85.3063 59.7058 85.4291" stroke="#7F7F7F" stroke-width="0.9443" stroke-linecap="round" stroke-linejoin="round"/>
<path d="M50.1353 84.5609C50.1353 84.5609 53.0862 84.0303 57.2299 84.8225" stroke="#7F7F7F" stroke-width="0.9443" stroke-linecap="round" stroke-linejoin="round"/>
<path d="M63.7992 103.396C63.7992 103.396 63.0696 97.7566 66.1293 91.3031C69.1894 84.8501 71.6457 97.8205 71.6457 97.8205C71.6457 97.8205 75.1511 103.346 75.9951 107.283C75.9951 107.283 79.0036 104.364 91.3446 103.396L92.7897 108.573C92.7897 108.573 75.8084 116.889 72.2233 116.274C69.5766 115.82 63.7992 103.396 63.7992 103.396Z" fill="#FFD81C" stroke="#263238" stroke-width="0.5" stroke-miterlimit="10" stroke-linecap="round" stroke-linejoin="round"/>
<path d="M69.8911 105.208C69.8898 105.718 69.928 106.233 70.0225 106.744" stroke="#263238" stroke-width="0.5" stroke-miterlimit="10" stroke-linecap="round" stroke-linejoin="round"/>
<path d="M66.7236 103.396C66.7236 103.396 69.2007 97.9713 70.501 98.357C71.4224 98.6306 70.4383 100.787 70.0414 103.396" stroke="#263238" stroke-width="0.5" stroke-miterlimit="10" stroke-linecap="round" stroke-linejoin="round"/>
<path d="M89.8882 102.874C89.8882 102.874 91.885 106.333 91.7882 109.943L94.2062 108.632C94.2062 108.632 93.9684 104.23 92.2758 102.749L89.8882 102.874Z" fill="#263238" stroke="#263238" stroke-width="0.5" stroke-miterlimit="10" stroke-linecap="round" stroke-linejoin="round"/>
<path d="M91.7876 103.518L95.7392 102.874C95.7392 102.874 96.6892 100.735 99.1095 100.815C100.956 100.877 102.474 100.424 103.09 100.205C103.254 100.147 103.432 100.267 103.426 100.441C103.409 101.004 103.002 102.075 100.239 102.324C100.239 102.324 102.733 103.836 103.427 103.222C104.121 102.609 104.838 102.905 104.838 102.905C104.838 102.905 104.918 104.84 103.547 104.92C103.547 104.92 103.224 106.174 102.176 106.151C102.176 106.151 101.45 107.173 100.885 107.012C100.885 107.012 100.24 107.208 99.1907 107.029C98.142 106.852 97.0123 106.628 97.0123 106.628L93.3216 107.774L91.7876 103.518Z" fill="#263238" stroke="#263238" stroke-width="0.5" stroke-miterlimit="10" stroke-linecap="round" stroke-linejoin="round"/>
<path d="M103.091 103.982C103.091 103.982 103.139 104.773 102.559 104.918C101.979 105.063 102.705 105.742 100.721 106.346" stroke="#7F7F7F" stroke-width="0.9443" stroke-linecap="round" stroke-linejoin="round"/>
<path d="M76.0571 108.835C76.0571 108.835 76.1539 110.321 75.6704 111.961" stroke="#263238" stroke-width="0.5" stroke-miterlimit="10" stroke-linecap="round" stroke-linejoin="round"/>
<path d="M93.7157 105.571C93.5267 104.854 93.2681 104.129 92.9155 103.543" stroke="#7F7F7F" stroke-width="0.9443" stroke-linecap="round" stroke-linejoin="round"/>
<path d="M94.0036 106.929C93.9672 106.711 93.9243 106.48 93.8745 106.243" stroke="#7F7F7F" stroke-width="0.9443" stroke-linecap="round" stroke-linejoin="round"/>
</g>
<defs>
<clipPath id="clip0_2012_17849">
<rect width="240" height="240" fill="white"/>
</clipPath>
</defs>
</svg>
